:SAMPLES-PER-SECOND 30
:FULLY-SPECIFIED
:DEGREES
1230
root  14.6933 40.6098 10.1167 151.176 86.5223 154.418
RightUpLeg  3.30426 -12.0737 -12.6745
RightLeg  6.90356 -10.8057 2.56879
RightFoot  -1.49508 -0.344617 3.8706
RightToes  0.000481921 0.542163 -0.142578
Spine  -0.655612 -0.979424 -1.55157
Spine1  11.4916 -2.01085 3.79649
HEad  14.0529 -0.295406 0.337978
LeftShoulder1  8.92823 -12.9566 -47.3365
LeftArm  -16.7877 24.4122 -14.1225
LeftForeArm  170.426 -41.8947 -170.835
LeftHand  -0.25398 0.0180481 5.50724
RightShoulder  4.663 7.74057 35.4978
RightArm  -5.21204 -20.7495 35.0847
RightForeArm  151.212 47.7809 167.557
RightHand  -0.635444 -0.376186 -14.6671
LeftUpLeg  3.53908 7.53792 8.86118
LeftLeg  0.759473 11.6075 -3.27805
LeftFoot  2.9336 0.767971 -6.21281
LeftToes  1.06245e-005 4.65869e-005 -8.65517e-006
1231
root  14.6711 40.6091 10.1154 151.073 86.5033 154.337
RightUpLeg  3.27052 -12.0789 -12.6792
RightLeg  6.95174 -10.8112 2.54357
RightFoot  -1.50718 -0.342994 3.86095
RightToes  0.000481921 0.542163 -0.142578
Spine  -0.674515 -1.02158 -1.49565
Spine1  11.5996 -2.01161 3.63098
HEad  14.1659 -0.278492 0.436769
LeftShoulder1  8.85909 -12.8966 -47.1378
LeftArm  -17.1 24.4971 -14.2721
LeftForeArm  170.198 -41.8762 -170.827
LeftHand  -0.25398 0.0180481 5.50724
RightShoulder  4.61629 7.66411 35.366
RightArm  -5.15033 -20.7587 35.1748
RightForeArm  151.976 47.7049 167.637
RightHand  -0.67123 -0.0860687 -14.6804
LeftUpLeg  3.51522 7.53442 8.84338
LeftLeg  0.778369 11.6017 -3.27775
LeftFoot  2.95193 0.768256 -6.21652
LeftToes  1.06245e-005 4.65869e-005 -8.65517e-006
1232
root  14.6499 40.6073 10.1132 150.721 86.4575 153.99
RightUpLeg  3.21412 -12.1346 -12.7345
RightLeg  7.03114 -10.7884 2.53784
RightFoot  -1.53425 -0.341031 3.84595
RightToes  0.000481921 0.542163 -0.142578
Spine  -0.804964 -1.0616 -1.48218
Spine1  11.7963 -2.01755 3.49198
HEad  14.3539 -0.311716 0.495629
LeftShoulder1  8.83823 -12.9067 -46.9949
LeftArm  -17.1515 24.4838 -14.3087
LeftForeArm  170.146 -41.9547 -170.8
LeftHand  -0.25398 0.0180481 5.50724
RightShoulder  4.56507 7.57289 35.2461
RightArm  -5.22845 -20.6002 35.2316
RightForeArm  152.701 47.8032 167.645
RightHand  -0.658043 -0.0843348 -14.3864
LeftUpLeg  3.49721 7.50149 8.78533
LeftLeg  0.744305 11.6092 -3.28521
LeftFoot  2.97896 0.767576 -6.2082
LeftToes  1.06245e-005 4.65869e-005 -8.65517e-006
1233
root  14.6279 40.6057 10.113 151.089 86.3715 154.38
RightUpLeg  3.21018 -12.1736 -12.7677
RightLeg  7.07534 -10.8282 2.5372
RightFoot  -1.55531 -0.338736 3.82441
RightToes  0.000481921 0.542163 -0.142578
Spine  -0.937341 -1.07971 -1.52994
Spine1  12.0289 -2.05166 3.5287
HEad  14.5584 -0.401155 0.509042
LeftShoulder1  8.88951 -12.9872 -47.0378
LeftArm  -16.9351 24.2363 -14.2807
LeftForeArm  169.94 -42.2669 -170.691
LeftHand  -0.25398 0.0180481 5.50724
RightShoulder  4.53656 7.53067 35.1473
RightArm  -5.51168 -20.3721 35.1284
RightForeArm  153.343 47.8867 167.654
RightHand  -0.613387 -0.339339 -14.0617
LeftUpLeg  3.47023 7.48826 8.76173
LeftLeg  0.739458 11.535 -3.29218
LeftFoot  3.00888 0.765449 -6.1788
LeftToes  1.06245e-005 4.65869e-005 -8.65517e-006
1234
root  14.5986 40.6046 10.1167 151.972 86.305 155.309
RightUpLeg  3.22623 -12.1591 -12.7331
RightLeg  7.09216 -10.9116 2.51893
RightFoot  -1.55594 -0.336143 3.79553
RightToes  0.000481921 0.542163 -0.142578
Spine  -0.936248 -1.0632 -1.60577
Spine1  12.1748 -2.09393 3.71661
HEad  14.7412 -0.505577 0.511455
LeftShoulder1  8.97105 -13.0633 -47.2561
LeftArm  -16.6044 23.711 -14.2304
LeftForeArm  169.817 -42.7142 -170.544
LeftHand  -0.25398 0.0180481 5.50724
RightShoulder  4.56405 7.60967 35.1032
RightArm  -5.92725 -20.1992 34.7961
RightForeArm  153.992 47.6753 167.78
RightHand  -0.58705 -0.558676 -14.0394
LeftUpLeg  3.42355 7.5083 8.79528
LeftLeg  0.79723 11.4222 -3.28418
LeftFoot  3.03035 0.764701 -6.17096
LeftToes  1.06245e-005 4.65869e-005 -8.65517e-006
1235
root  14.5611 40.6041 10.1239 152.423 86.3185 155.784
RightUpLeg  3.15696 -12.1285 -12.6601
RightLeg  7.14909 -10.9449 2.48116
RightFoot  -1.54263 -0.333412 3.76046
RightToes  0.000481921 0.542163 -0.142578
Spine  -0.843137 -1.01875 -1.64262
Spine1  12.2237 -2.09462 3.86096
HEad  14.894 -0.601606 0.568497
LeftShoulder1  8.99431 -13.0568 -47.3997
LeftArm  -16.2632 23.026 -14.3317
LeftForeArm  170.172 -43.0892 -170.447
LeftHand  -0.25398 0.0180481 5.50724
RightShoulder  4.62498 7.75364 35.1194
RightArm  -6.20254 -20.0431 34.4109
RightForeArm  154.155 47.1895 167.98
RightHand  -0.592446 -0.590946 -14.2585
LeftUpLeg  3.34727 7.53361 8.83854
LeftLeg  0.877632 11.3893 -3.26342
LeftFoot  3.04127 0.766336 -6.19884
LeftToes  1.06245e-005 4.65869e-005 -8.65517e-006
1236
root  14.5248 40.6038 10.1305 152.29 86.3986 155.615
RightUpLeg  2.98963 -12.114 -12.5857
RightLeg  7.2321 -10.9164 2.4494
RightFoot  -1.5142 -0.33086 3.72279
RightToes  0.000481921 0.542163 -0.142578
Spine  -0.84667 -0.978228 -1.60718
Spine1  12.3075 -2.05313 3.84208
HEad  15.0282 -0.669988 0.722398
LeftShoulder1  8.91045 -12.9583 -47.2351
LeftArm  -15.9063 22.27 -14.8279
LeftForeArm  170.692 -43.4022 -170.38
LeftHand  -0.25398 0.0180481 5.50724
RightShoulder  4.63853 7.80612 35.0498
RightArm  -6.15652 -19.686 34.3064
RightForeArm  153.669 46.7844 168.104
RightHand  -0.592812 -0.613889 -14.3325
LeftUpLeg  3.24202 7.54774 8.86199
LeftLeg  0.925417 11.4528 -3.24895
LeftFoot  3.06068 0.767476 -6.21595
LeftToes  1.06245e-005 4.65869e-005 -8.65517e-006
1237
root  14.4971 40.6037 10.1341 152.116 86.4947 155.386
RightUpLeg  2.84684 -12.1014 -12.5221
RightLeg  7.24738 -10.8783 2.45488
RightFoot  -1.45683 -0.329195 3.69058
RightToes  0.000481921 0.542163 -0.142578
Spine  -1.002 -0.950893 -1.53242
Spine1  12.4858 -2.00683 3.75529
HEad  15.1886 -0.715796 0.927525
LeftShoulder1  8.77275 -12.8269 -46.8714
LeftArm  -15.5277 21.252 -15.6894
LeftForeArm  170.84 -43.9779 -170.204
LeftHand  -0.25398 0.0180481 5.50724
RightShoulder  4.57407 7.73934 34.7248
RightArm  -5.99584 -18.943 34.5108
RightForeArm  153.147 46.8017 168.063
RightHand  -0.560451 -0.823021 -14.1391
LeftUpLeg  3.15779 7.56142 8.88657
LeftLeg  0.9214 11.5341 -3.25173
LeftFoot  3.1042 0.76629 -6.19275
LeftToes  1.06245e-005 4.65869e-005 -8.65517e-006
